<svg width="183" height="94" viewBox="0 0 183 94" fill="none" xmlns="http://www.w3.org/2000/svg">
<path d="M84.7585 17.0589L89.3867 2.39987C90.1234 0.0665815 93.1001 0.0665767 93.8368 2.39987L98.4614 17.0473C99.2581 19.5705 101.644 21.0206 103.991 20.4083L148.308 8.84895C148.59 8.77554 148.875 8.73141 149.16 8.71611C150.757 8.63055 152.072 9.79541 153.252 10.874L177.809 33.315C178.989 34.3936 180.464 35.2138 181.346 36.5469C182.741 38.6528 182.402 41.6592 180.783 43.4178C179.131 45.213 176.33 44.405 174.05 43.5339L151.639 34.9698C150.915 34.6933 150.133 34.5021 149.387 34.7114L108.11 46.2956C105.531 47.0193 104.003 49.9629 104.734 52.7981L113.468 86.6875C114.329 90.0263 112.067 93.3499 108.935 93.3499H74.2885C71.1561 93.3499 68.8946 90.0263 69.7551 86.6875L78.4858 52.8136C79.218 49.9725 77.6818 47.0239 75.0959 46.3072L33.2404 34.7076C32.5031 34.5032 31.7309 34.6933 31.0175 34.9696L8.98721 43.5017C6.68357 44.3938 3.84118 45.2166 2.18561 43.383C0.601055 41.6282 0.270443 38.667 1.63577 36.5752C2.51312 35.2311 3.98886 34.3992 5.16704 33.3091L29.3831 10.9029C30.5613 9.81273 31.8755 8.63479 33.4786 8.71529C33.7648 8.72966 34.0509 8.773 34.3332 8.84579L79.2405 20.4229C81.5848 21.0273 83.9634 19.5772 84.7585 17.0589Z" fill="#FF9F0A"/>
</svg>
